<svg xmlns="http://www.w3.org/2000/svg" width="64" height="64" fill="none"><path fill="#1B6440" d="M39.793 42.876C33.825 47.375 27.6 46.953 22.3 46.594c-2.302-.156-4.43-.3-6.285-.024-.429.064-.795.32-1.009.68a24.35 24.35 0 0 0-1.624 3.256 20.66 20.66 0 0 0-.875 2.667 1.118 1.118 0 0 1-1.27.811l-.195-.032c-.635-.107-1.092-.647-1.037-1.26.266-2.955 1.065-5.691 2.313-7.965l.041-.074c.424-.762.892-1.486 1.398-2.178 3.547-4.837 9.013-8.07 14.745-11.462l.01-.005c2.482-1.468 5.014-2.965 7.46-4.634-2.828 1.584-5.778 2.845-8.653 4.073C21.485 32.94 15.96 35.3 12.384 39.97c-.281.368-.911.229-.943-.226-.597-8.588 3.406-16.622 8.705-20.616 5.283-3.981 11.883-4.905 18.85-5.88C43.926 12.558 49.039 11.842 54 10c-.563 14.883-7.336 27.698-14.207 32.876Z"/></svg>